<svg width="80" height="80" fill="none" xmlns="http://www.w3.org/2000/svg"><path d="M52.5 10H54a1.5 1.5 0 0 0-1.5-1.5V10Zm-25 0V8.5A1.5 1.5 0 0 0 26 10h1.5Zm0 10H26a1.5 1.5 0 0 0 1.5 1.5V20Zm25 0v1.5A1.5 1.5 0 0 0 54 20h-1.5Zm-11 25a1.5 1.5 0 0 0-3 0h3Zm-3 10a1.5 1.5 0 0 0 3 0h-3ZM35 48.5a1.5 1.5 0 0 0 0 3v-3Zm10 3a1.5 1.5 0 0 0 0-3v3Zm9.583-33H25.417v3h29.166v-3Zm-29.166 0c-1.176 0-2.3.471-3.128 1.305l2.13 2.113c.267-.269.626-.418.998-.418v-3Zm-3.128 1.305A4.454 4.454 0 0 0 21 22.942h3c0-.387.152-.755.42-1.024l-2.13-2.113ZM21 22.942v44.117h3V22.942h-3Zm0 44.117c0 1.174.462 2.302 1.29 3.136l2.13-2.112a1.454 1.454 0 0 1-.42-1.024h-3Zm1.29 3.136a4.405 4.405 0 0 0 3.127 1.305v-3c-.372 0-.731-.148-.998-.417l-2.13 2.112Zm3.127 1.305h29.166v-3H25.417v3Zm29.166 0c1.176 0 2.3-.47 3.128-1.305l-2.13-2.112a1.404 1.404 0 0 1-.998.417v3Zm3.128-1.305A4.454 4.454 0 0 0 59 67.06h-3c0 .386-.152.754-.42 1.024l2.13 2.112ZM59 67.06V22.942h-3v44.117h3Zm0-44.117a4.454 4.454 0 0 0-1.29-3.137l-2.13 2.113c.268.27.42.637.42 1.024h3Zm-1.29-3.137a4.405 4.405 0 0 0-3.127-1.305v3c.372 0 .731.15.998.418l2.13-2.113ZM52.5 8.5h-25v3h25v-3ZM26 10v10h3V10h-3Zm1.5 11.5h25v-3h-25v3ZM54 20V10h-3v10h3ZM22.5 31.5h35v-3h-35v3Zm16 13.5v10h3V45h-3ZM35 51.5h10v-3H35v3Z" fill="#181940"/></svg>